<svg width="231" height="36" viewBox="0 0 231 36" fill="none" xmlns="http://www.w3.org/2000/svg">
<path d="M5.39698 5.32128C8.85151 1.89444 13.5283 0.00280771 18.7101 0.00280771C20.4976 0.00280771 22.2134 0.23014 23.8747 0.681999C20.8276 2.36033 18.317 4.96765 16.6758 8.28502C16.6357 8.36922 16.5955 8.45061 16.5525 8.53201C12.24 9.4694 9.10686 13.1937 9.10686 17.9481C9.10686 23.3171 13.1754 27.3389 18.406 27.3389C21.8892 27.3389 24.744 25.4557 26.2159 22.1804H16.716V20.7378C16.716 16.3652 17.3243 12.7868 18.8536 9.75287C21.8461 3.68785 27.7424 0 34.5539 0C39.6352 0 44.2087 1.84673 47.6604 5.27356C51.1178 8.70882 53 13.1797 53 18.0014C53 22.8259 51.1178 27.2463 47.6088 30.6815C44.1571 34.1084 39.4774 35.9972 34.2956 35.9972C32.5139 35.9972 30.7952 35.7727 29.1368 35.3236C30.5972 34.5237 31.9458 33.5134 33.1537 32.315C34.6285 30.8527 35.8106 29.2025 36.6886 27.4147C40.8747 26.3931 43.8903 22.7221 43.8903 18.0547C43.8903 12.6857 39.8275 8.66111 34.5998 8.66111C31.1108 8.66111 28.256 10.5471 26.7812 13.8196H36.284V15.2622C36.284 19.6376 35.6729 23.2132 34.1436 26.2499C31.151 32.315 25.2548 36 18.4461 36C13.3648 36 8.79125 34.1561 5.33673 30.7236C1.87933 27.294 0 22.8231 0 17.9986C0.0114768 13.1741 1.89368 8.74811 5.39698 5.32128Z" fill="#F03A55"/>
<path d="M75.1664 16.6696H82.8366V26.7444C81.8347 27.1031 80.5543 27.402 79.0015 27.6413C78.0499 27.7876 77.1455 27.8892 76.2892 27.9459C75.7458 27.982 75.2212 28 74.7153 28C73.6324 28 72.6552 27.9551 71.7824 27.8655C70.9103 27.7758 70.0382 27.6077 69.1661 27.3572C68.2932 27.1068 67.5607 26.7836 66.9701 26.3857C66.3779 25.9858 65.9021 25.4476 65.5411 24.7713C65.388 24.4838 65.2672 24.1745 65.1786 23.8434C65.0593 23.3953 65 22.9072 65 22.3797V14.3078C65 13.2915 65.2109 12.3945 65.6319 11.6174C65.8421 11.2298 66.08 10.8844 66.3449 10.5811C66.4035 10.5139 66.4635 10.4489 66.525 10.3858C66.5716 10.3376 66.6188 10.2906 66.6676 10.245C66.8433 10.0788 67.0294 9.92834 67.226 9.79368C67.8669 9.3546 68.6392 8.99215 69.5421 8.70256C70.4442 8.41297 71.311 8.22423 72.1434 8.13447C72.6755 8.07719 73.2263 8.03812 73.7967 8.01747C74.1172 8.00582 74.4437 8 74.7754 8C77.5425 8 80.1896 8.20921 82.7165 8.62782V12.1555C80.3307 11.5968 77.6836 11.3184 74.7754 11.3184C71.3861 11.3184 69.6922 12.2937 69.6922 14.2481V22.0509C69.6922 23.0468 70.168 23.7343 71.1212 24.1137C72.0721 24.4909 73.4312 24.6816 75.1964 24.6816C76.1796 24.6816 77.2326 24.5321 78.3546 24.2331V19.7189H75.1664V16.6696Z" fill="#F03A55"/>
<path fill-rule="evenodd" clip-rule="evenodd" d="M91.8 8.29879H97.5143L104.553 27.7008H99.8004L98.0562 22.5887H90.9271L89.2129 27.7008H84.5808L91.8 8.29879ZM94.4462 12.1851L91.9801 19.4797H97.0333L94.5671 12.1851H94.4462Z" fill="#F03A55"/>
<path d="M129.248 8.29879H122.962L118.21 22.1703L113.397 8.29879H106.719V27.7008H111.021V13.3512H111.141L116.224 27.7008H119.984L124.917 13.3512H125.007V27.7008H129.248V8.29879Z" fill="#F03A55"/>
<path d="M138.151 24.3826H148.648V27.7008H133.458V8.29879H148.347V11.6172H138.151V16.0717H147.355V19.3899H138.151V24.3826Z" fill="#F03A55"/>
<path d="M169.22 16.6696H161.55V19.7189H164.738V24.2331C163.616 24.5321 162.563 24.6816 161.58 24.6816C159.815 24.6816 158.456 24.4909 157.505 24.1137C156.552 23.7343 156.076 23.0468 156.076 22.0509V14.2481C156.076 12.2937 157.77 11.3184 161.159 11.3184C164.067 11.3184 166.714 11.5968 169.1 12.1555V8.62782C166.573 8.20921 163.928 8 161.159 8C160.236 8 159.358 8.04488 158.527 8.13447C157.695 8.22423 156.828 8.41297 155.926 8.70256C155.023 8.99215 154.251 9.3546 153.61 9.79368C152.966 10.2328 152.437 10.8401 152.016 11.6174C151.831 11.9577 151.687 12.3211 151.583 12.7074C151.45 13.203 151.384 13.7366 151.384 14.3078V22.3797C151.384 23.2971 151.564 24.0949 151.925 24.7713C152.128 25.1522 152.368 25.4891 152.644 25.7823C152.858 26.0099 153.095 26.211 153.354 26.3857C153.944 26.7836 154.677 27.1068 155.55 27.3572C156.422 27.6077 157.294 27.7758 158.166 27.8655C159.039 27.9551 160.016 28 161.099 28C162.402 28 163.83 27.8804 165.385 27.6413C166.938 27.402 168.218 27.1031 169.22 26.7444V16.6696Z" fill="#F03A55"/>
<path d="M185.191 22.3795V8.29879H189.884V22.3795C189.884 26.1276 187.056 27.9998 181.402 27.9998C175.768 27.9998 172.95 26.1276 172.95 22.3795V8.29879H177.642V22.3795C177.642 23.2558 177.931 23.8594 178.514 24.1882C179.095 24.5171 180.078 24.6814 181.462 24.6814C182.825 24.6814 183.787 24.5171 184.349 24.1882C184.91 23.8594 185.191 23.2577 185.191 22.3795Z" fill="#F03A55"/>
<path fill-rule="evenodd" clip-rule="evenodd" d="M205.765 19.7188C207.028 19.5601 208.085 19.1602 208.938 18.523C209.79 17.8839 210.217 16.9778 210.217 15.8025V12.3945C210.217 10.8996 209.625 9.84401 208.442 9.22559C207.259 8.60904 205.384 8.29879 202.818 8.29879H194.034V27.7008H198.727V20.0776H200.893L206.006 27.7008H211.42L205.765 19.7188ZM205.013 16.5648C204.613 16.8544 203.859 16.9983 202.757 16.9983H198.727V11.6172H202.757C203.429 11.6172 203.976 11.6732 204.394 11.7853C204.624 11.8469 204.815 11.9254 204.968 12.0208C205.399 12.2916 205.615 12.7831 205.615 13.5007V14.8758C205.615 15.7128 205.414 16.2752 205.013 16.5648Z" fill="#F03A55"/>
<path d="M226.308 22.3795V8.29879H231V22.3795C231 26.1276 228.173 27.9998 222.518 27.9998C216.884 27.9998 214.066 26.1276 214.066 22.3795V8.29879H218.758V22.3795C218.758 23.2558 219.048 23.8594 219.631 24.1882C219.989 24.391 220.5 24.5313 221.164 24.6091C221.577 24.6573 222.048 24.6814 222.579 24.6814C223.941 24.6814 224.904 24.5171 225.466 24.1882C226.026 23.8594 226.308 23.2577 226.308 22.3795Z" fill="#F03A55"/>
</svg>
