<svg width="197" height="24" viewBox="0 0 197 24" fill="none" xmlns="http://www.w3.org/2000/svg">
<path d="M11.748 9.41324C13.0744 9.41324 14.085 8.3395 14.085 7.07627C14.085 5.81304 13.0112 4.7393 11.748 4.7393H4.67394V9.41324H11.748ZM13.3271 18.8243C14.6534 18.8243 15.664 17.7505 15.664 16.4873C15.664 15.2241 14.5903 14.1503 13.3271 14.1503H4.67394V18.8874H13.3271V18.8243ZM20.4011 16.4873C20.4011 20.4033 17.2431 23.4982 13.3271 23.5614H0V0.00219727H11.748C15.664 0.00219727 18.8221 3.22343 18.8221 7.13943C18.8221 8.46582 18.4431 9.79221 17.6852 10.9291C19.3905 12.2555 20.4011 14.2767 20.4011 16.4873Z" fill="#EA344F"/>
<path d="M39.3497 12.5713C41.4972 12.6345 43.3289 10.9923 43.4552 8.78163C43.5184 6.63414 41.8762 4.80246 39.6655 4.67614H35.4337V12.5082H39.3497V12.5713ZM48.8239 23.4982H43.2657L39.1602 17.2453H35.4337V23.4982H30.7598V0.00219727H39.3497C44.0868 0.00219727 48.0028 3.85504 48.0028 8.65531C48.0028 11.6239 46.4869 14.403 43.8973 15.982L48.8239 23.4982Z" fill="#EA344F"/>
<path d="M60.8878 11.7502C60.8878 15.6662 64.0459 18.8243 67.9619 18.8243C71.8779 18.8243 75.036 15.6662 75.036 11.7502C75.036 7.83421 71.8779 4.67614 67.9619 4.67614C64.109 4.7393 60.951 7.89737 60.8878 11.7502ZM67.9619 23.4982C61.4563 23.4982 56.2139 18.2558 56.2139 11.7502C56.2139 5.24459 61.4563 0.00219727 67.9619 0.00219727C74.4675 0.00219727 79.7099 5.24459 79.7099 11.7502C79.7099 18.2558 74.4675 23.4982 67.9619 23.4982Z" fill="#EA344F"/>
<path d="M97.4573 18.8244C101.373 18.8244 104.531 15.6663 104.531 11.7503C104.531 7.8343 101.373 4.67623 97.4573 4.67623H93.5413V18.7612H97.4573V18.8244ZM88.8042 23.4983V0.00228972H97.3941C103.9 -0.124033 109.268 4.99204 109.395 11.4977C109.521 18.0033 104.405 23.372 97.8994 23.4983H88.8042Z" fill="#EA344F"/>
<path d="M138.387 13.3292C138.26 18.9506 133.587 23.4351 127.965 23.2456C122.533 23.1193 118.175 18.7611 118.049 13.3292V0.00219727H122.723V13.3292C122.723 16.361 125.186 18.8243 128.218 18.8243C131.25 18.8243 133.713 16.361 133.713 13.3292V0.00219727H138.387V13.3292Z" fill="#EA344F"/>
<path d="M158.598 18.8243C162.514 18.8243 165.672 15.6662 165.672 11.7502C165.672 7.83421 162.514 4.67614 158.598 4.67614H154.682V18.7611H158.598V18.8243ZM149.945 23.4982V0.00219727H158.535C165.041 0.12852 170.157 5.5604 170.031 12.0029C169.904 18.319 164.851 23.3719 158.598 23.4982H149.945Z" fill="#EA344F"/>
<path d="M179.757 0.00219727H197V4.67614H184.431V11.7502H193.842V16.4242H184.431V18.7611H197V23.4351H179.757V0.00219727Z" fill="#EA344F"/>
</svg>
