<svg width="16" height="16" viewBox="0 0 16 16" fill="none" xmlns="http://www.w3.org/2000/svg">
<path d="M14.4 4H13.4328C13.5501 3.61103 13.6065 3.20623 13.6 2.8C13.6 1.256 12.344 0 10.8 0C9.5024 0 8.636 1.1856 8.0768 2.468C7.5256 1.256 6.6152 0 5.2 0C3.656 0 2.4 1.256 2.4 2.8C2.4 3.2768 2.4632 3.6712 2.5672 4H1.6C0.7176 4 0 4.7176 0 5.6V7.2C0 8.0824 0.7176 8.8 1.6 8.8V14.4C1.6 15.2824 2.3176 16 3.2 16H12.8C13.6824 16 14.4 15.2824 14.4 14.4V8.8C15.2824 8.8 16 8.0824 16 7.2V5.6C16 4.7176 15.2824 4 14.4 4ZM10.8 1.6C11.4616 1.6 12 2.1384 12 2.8C12 4 11.4992 4 11.2 4H9.2176C9.6264 2.7392 10.22 1.6 10.8 1.6ZM4 2.8C4 2.1384 4.5384 1.6 5.2 1.6C5.9104 1.6 6.5712 2.82 6.9584 4H4.8C4.5008 4 4 4 4 2.8ZM1.6 5.6H7.2V7.2H1.6V5.6ZM3.2 14.4V8.8H7.2V14.4H3.2ZM12.8 14.4H8.8V8.8H12.8V14.4ZM8.8 7.2V5.668L8.8136 5.6H14.4L14.4008 7.2H8.8Z" fill="white"/>
</svg>
