<svg width="26" height="26" viewBox="0 0 26 26" fill="none" xmlns="http://www.w3.org/2000/svg">
<circle cx="13" cy="13" r="13" fill="#7F7F7F"/>
<path fill-rule="evenodd" clip-rule="evenodd" d="M12.9985 8.89335C12.1859 8.89335 11.3916 9.13431 10.716 9.58575C10.0404 10.0372 9.51382 10.6788 9.20289 11.4295C8.89195 12.1803 8.81061 13.0063 8.96915 13.8032C9.1277 14.6002 9.51901 15.3322 10.0936 15.9068C10.6682 16.4813 11.4002 16.8725 12.1972 17.031C12.9941 17.1895 13.8202 17.1081 14.5709 16.7971C15.3216 16.4861 15.9632 15.9595 16.4146 15.2839C16.8659 14.6082 17.1068 13.8139 17.1068 13.0013C17.1068 12.4618 17.0006 11.9276 16.7941 11.4291C16.5877 10.9307 16.2851 10.4778 15.9036 10.0963C15.522 9.71487 15.0691 9.41229 14.5707 9.20588C14.0722 8.99947 13.538 8.89327 12.9985 8.89335ZM12.9985 15.6679C12.4709 15.6679 11.9552 15.5114 11.5165 15.2183C11.0778 14.9252 10.7359 14.5086 10.534 14.0212C10.3321 13.5338 10.2793 12.9974 10.3822 12.48C10.4851 11.9625 10.7392 11.4872 11.1123 11.1142C11.4853 10.7411 11.9606 10.487 12.4781 10.3841C12.9955 10.2812 13.5319 10.334 14.0193 10.5359C14.5067 10.7378 14.9233 11.0797 15.2164 11.5184C15.5095 11.957 15.666 12.4728 15.666 13.0004C15.666 13.7078 15.385 14.3863 14.8847 14.8866C14.3844 15.3868 13.7059 15.6679 12.9985 15.6679Z" fill="black"/>
<path d="M18.2304 8.73067C18.2304 9.26085 17.8006 9.69066 17.2704 9.69066C16.7402 9.69066 16.3104 9.26085 16.3104 8.73067C16.3104 8.20048 16.7402 7.77068 17.2704 7.77068C17.8006 7.77068 18.2304 8.20048 18.2304 8.73067Z" fill="black"/>
<path fill-rule="evenodd" clip-rule="evenodd" d="M13.0013 5C10.8285 5 10.556 5.00921 9.70276 5.04827C8.84948 5.08733 8.26866 5.22356 7.75961 5.4214C7.22584 5.62225 6.74229 5.93706 6.34265 6.34392C5.93637 6.74372 5.6221 7.22726 5.42172 7.76088C5.22229 8.26993 5.08701 8.85138 5.04827 9.70276C5.00953 10.5541 5 10.8285 5 13.0013C5 15.174 5.00921 15.4465 5.04827 16.2998C5.08733 17.1531 5.22229 17.7326 5.42013 18.2417C5.62098 18.7754 5.93579 19.259 6.34265 19.6586C6.74236 20.0655 7.22589 20.3804 7.75961 20.5815C8.2677 20.779 8.85011 20.9143 9.70149 20.9533C10.5529 20.9924 10.8272 21.0013 13 21.0013C15.1728 21.0013 15.4452 20.9921 16.2985 20.9533C17.1518 20.9146 17.7313 20.779 18.2404 20.5815C18.7718 20.3759 19.2544 20.0615 19.6574 19.6586C20.0603 19.2557 20.3746 18.7731 20.5802 18.2417C20.7777 17.7336 20.913 17.1512 20.952 16.2998C20.9911 15.4484 21 15.174 21 13.0013C21 10.8285 20.9908 10.556 20.952 9.70276C20.9133 8.84948 20.7777 8.26993 20.5802 7.76088C20.3791 7.22716 20.0642 6.74363 19.6574 6.34392C19.2576 5.93764 18.774 5.62337 18.2404 5.42299C17.7313 5.22356 17.1499 5.08828 16.2985 5.04954C15.4471 5.0108 15.1728 5.00127 13 5.00127L13.0013 5ZM13 6.44268C15.1362 6.44268 15.389 6.45094 16.2328 6.48936C17.0127 6.52493 17.4363 6.65513 17.7183 6.76469C18.0662 6.89279 18.3809 7.09735 18.6393 7.36329C18.9052 7.6216 19.1098 7.93631 19.2379 8.28422C19.3474 8.56621 19.4776 8.98984 19.5132 9.76977C19.5516 10.6135 19.5599 10.8663 19.5599 13.0025C19.5599 15.1388 19.5516 15.3916 19.5132 16.2353C19.4776 17.0152 19.3474 17.4389 19.2379 17.7209C19.1046 18.0658 18.9007 18.3791 18.6393 18.6405C18.3778 18.902 18.0645 19.1059 17.7196 19.2391C17.4376 19.3487 17.014 19.4789 16.234 19.5144C15.3906 19.5529 15.1375 19.5611 13.0013 19.5611C10.865 19.5611 10.6119 19.5529 9.7685 19.5144C8.98857 19.4789 8.56494 19.3487 8.28295 19.2391C7.93504 19.111 7.62033 18.9065 7.36202 18.6405C7.09608 18.3822 6.89152 18.0675 6.76342 17.7196C6.65386 17.4376 6.52366 17.014 6.48809 16.234C6.44967 15.3903 6.44141 15.1375 6.44141 13.0013C6.44141 10.865 6.44967 10.6123 6.48809 9.7685C6.52366 8.98857 6.65386 8.56494 6.76342 8.28295C6.89152 7.93504 7.09608 7.62033 7.36202 7.36202C7.62033 7.09608 7.93504 6.89152 8.28295 6.76342C8.56494 6.65386 8.98857 6.52366 9.7685 6.48809C10.6123 6.44967 10.865 6.44141 13.0013 6.44141L13 6.44268Z" fill="black"/>
</svg>
