<svg width="98" height="92" viewBox="0 0 98 92" fill="none" xmlns="http://www.w3.org/2000/svg">
<path d="M37.1349 90.1248C40.0048 90.1248 42.3313 87.7983 42.3313 84.9284C42.3313 82.0585 40.0048 79.7319 37.1349 79.7319C34.265 79.7319 31.9385 82.0585 31.9385 84.9284C31.9385 87.7983 34.265 90.1248 37.1349 90.1248Z" stroke="black" stroke-width="2" stroke-linecap="round" stroke-linejoin="round"/>
<path d="M83.2951 90.1248C86.165 90.1248 88.4915 87.7983 88.4915 84.9284C88.4915 82.0585 86.165 79.7319 83.2951 79.7319C80.4252 79.7319 78.0986 82.0585 78.0986 84.9284C78.0986 87.7983 80.4252 90.1248 83.2951 90.1248Z" stroke="black" stroke-width="2" stroke-linecap="round" stroke-linejoin="round"/>
<path d="M1 1.15918H21.2006L33.7577 57.5591C34.0306 58.3213 34.4507 59.1812 35.3955 60.3537C36.2145 61.3699 37.5794 62.1321 38.3983 62.1321H81.8022C82.8941 62.1321 84.4142 61.546 85.6239 60.6078C86.8337 59.6695 87.2618 59.0834 87.5348 58.5753L96.2702 18.6889H25.1034" stroke="black" stroke-width="2" stroke-linecap="round" stroke-linejoin="round"/>
</svg>
