<svg width="47" height="46" viewBox="0 0 47 46" fill="none" xmlns="http://www.w3.org/2000/svg">
<path d="M26.604 14.2944H24.0343C23.5099 14.2944 23.0903 14.7061 23.0903 15.2209V19.1327C23.0903 19.6475 23.5099 20.0592 24.0343 20.0592H26.604C27.1285 20.0592 27.548 19.6475 27.548 19.1327V15.2209C27.548 14.7061 27.1285 14.2944 26.604 14.2944Z" fill="#7F7F7F"/>
<path d="M26.604 25.4124H24.0343C23.5099 25.4124 23.0903 25.8242 23.0903 26.3389V30.2508C23.0903 30.7655 23.5099 31.1773 24.0343 31.1773H26.604C27.1285 31.1773 27.548 30.7655 27.548 30.2508V26.3389C27.548 25.8242 27.1285 25.4124 26.604 25.4124Z" fill="#7F7F7F"/>
<path d="M46.1651 19.4417V12.493C46.1651 11.9268 45.9554 11.3606 45.5358 10.9488L35.2569 0.911793C34.8374 0.500017 34.2605 0.294128 33.6837 0.294128H12.9686C12.3917 0.294128 11.8148 0.500017 11.3953 0.911793L1.16887 11.0003C0.749324 11.4121 0.539551 11.9783 0.539551 12.5445V32.8759C0.539551 33.4421 0.749324 34.0083 1.16887 34.4201L11.3953 44.4571C11.8148 44.8689 12.3917 45.0748 12.9686 45.0748H33.6837C34.2605 45.0748 34.8374 44.8689 35.2569 44.4571L45.4834 34.4201C45.9029 34.0083 46.1127 33.4421 46.1127 32.8759V25.6698C46.1127 25.1551 45.6931 24.7433 45.1687 24.7433H42.8612V27.1111C42.8612 27.8317 42.2319 28.4493 41.4977 28.4493H39.7671C39.0329 28.4493 38.4035 27.8317 38.4035 27.1111V24.7433H36.096C35.2569 24.7433 34.6276 24.0742 34.6276 23.3021V21.8609C34.6276 21.0374 35.3094 20.4197 36.096 20.4197H38.4035V18.052C38.4035 17.3314 39.0329 16.7137 39.7671 16.7137H41.4977C42.2319 16.7137 42.8612 17.3314 42.8612 18.052V20.3682H45.1687C45.7456 20.3682 46.1651 19.9564 46.1651 19.4417ZM15.3285 15.0151V33.9568C15.3285 34.3686 14.9614 34.7289 14.5419 34.7289H11.5526C11.1331 34.7289 10.766 34.3686 10.766 33.9568V15.0151H7.8816C7.46205 15.0151 7.09495 14.6548 7.09495 14.243V11.3091C7.09495 10.8974 7.46205 10.5371 7.8816 10.5371H10.766H14.5419C14.9614 10.5371 15.3285 10.8974 15.3285 11.3091V15.0151ZM32.0055 20.5741C32.0055 21.1918 31.6384 21.758 31.0615 21.9639C30.6944 22.2212 30.2748 22.4786 29.9077 22.6845C30.3273 22.9418 30.6944 23.1992 31.1139 23.508C31.6908 23.7139 32.0579 24.2801 32.0579 24.8978V31.2803C32.0579 31.6921 31.9006 32.1038 31.5859 32.3612L29.5406 34.3171C29.2784 34.5745 28.9113 34.7289 28.5442 34.7289H21.8839C21.5168 34.7289 21.0973 34.5745 20.8351 34.2657L19.052 32.3612C18.7898 32.1038 18.6325 31.6921 18.6325 31.3318V24.8978C18.6325 24.2801 18.9471 23.7654 19.4715 23.508L20.5204 22.6845L19.4715 21.9639C18.8947 21.758 18.58 21.1918 18.58 20.5741V14.0886C18.58 13.7283 18.7373 13.368 18.9471 13.0592L20.7826 10.9488C21.0448 10.64 21.4644 10.4341 21.8839 10.4341H28.4393C28.8064 10.4341 29.1735 10.5885 29.4882 10.8974L31.5335 13.0077C31.7957 13.2651 31.953 13.6769 31.953 14.0886V20.5741H32.0055Z" fill="#7F7F7F"/>
</svg>
