<svg width="44" height="18" viewBox="0 0 44 18" fill="none" xmlns="http://www.w3.org/2000/svg">
<path d="M7.95755 2.28776C7.44713 2.88714 6.63046 3.35989 5.81379 3.29235C5.71171 2.48193 6.11153 1.62085 6.57942 1.08901C7.08984 0.472748 7.98307 0.0337677 8.70616 0C8.79123 0.844193 8.45946 1.6715 7.95755 2.28776ZM8.69766 3.45275C7.51519 3.38522 6.50285 4.11966 5.94139 4.11966C5.37143 4.11966 4.51222 3.48652 3.57645 3.5034C2.35995 3.52029 1.22852 4.20408 0.607513 5.29309C-0.668535 7.47111 0.275741 10.6959 1.50925 12.4687C2.11325 13.3467 2.83634 14.3091 3.78913 14.2753C4.69087 14.2415 5.04816 13.6928 6.13705 13.6928C7.23446 13.6928 7.54921 14.2753 8.502 14.2584C9.48881 14.2415 10.1098 13.3805 10.7138 12.5025C11.4029 11.5064 11.6836 10.5355 11.7006 10.4849C11.6836 10.468 9.79506 9.75043 9.77804 7.5893C9.76103 5.78272 11.2668 4.92165 11.3348 4.871C10.4841 3.62159 9.15703 3.48652 8.69766 3.45275ZM15.5288 1.00459V14.1656H17.5875V9.66601H20.4373C23.0404 9.66601 24.8694 7.89321 24.8694 5.32686C24.8694 2.76051 23.0745 1.00459 20.5054 1.00459H15.5288ZM17.5875 2.72674H19.9609C21.7474 2.72674 22.7682 3.67224 22.7682 5.3353C22.7682 6.99836 21.7474 7.9523 19.9524 7.9523H17.5875V2.72674ZM28.6295 14.2669C29.9226 14.2669 31.1221 13.6168 31.6665 12.5869H31.7091V14.1656H33.6146V7.61462C33.6146 5.71519 32.0834 4.49111 29.7269 4.49111C27.5406 4.49111 25.9243 5.73207 25.8648 7.43734H27.7193C27.8724 6.62692 28.6295 6.09508 29.6674 6.09508C30.9264 6.09508 31.6325 6.67757 31.6325 7.74969V8.4757L29.0634 8.62766C26.6729 8.77117 25.3799 9.74199 25.3799 11.4304C25.3799 13.1356 26.7155 14.2669 28.6295 14.2669ZM29.1825 12.7051C28.0851 12.7051 27.3875 12.1817 27.3875 11.3797C27.3875 10.5524 28.0596 10.0712 29.3441 9.99525L31.6325 9.85174V10.5946C31.6325 11.8271 30.5776 12.7051 29.1825 12.7051ZM36.1582 17.7449C38.1659 17.7449 39.1101 16.9852 39.9353 14.6805L43.5508 4.61774H41.4581L39.0336 12.3928H38.991L36.5665 4.61774H34.4143L37.9021 14.1993L37.715 14.7818C37.4002 15.7695 36.8898 16.1494 35.9796 16.1494C35.8179 16.1494 35.5032 16.1325 35.3756 16.1157V17.6943C35.4947 17.7281 36.0051 17.7449 36.1582 17.7449Z" fill="#7F7F7F"/>
</svg>
