<svg width="41" height="16" viewBox="0 0 41 16" fill="none" xmlns="http://www.w3.org/2000/svg">
<path d="M9.3443 3.63229C8.64741 2.97724 7.71692 2.61872 6.75394 2.63422C4.99264 2.63422 3.4977 3.80418 2.96312 5.38076L2.96144 5.37947V5.38071C2.67883 6.20684 2.67883 7.10148 2.96144 7.92761H2.96312C3.4977 9.50419 4.99264 10.6741 6.75394 10.6741C7.66548 10.6741 8.44507 10.4436 9.05064 10.0397V10.0375C9.40232 9.80764 9.70311 9.50998 9.93489 9.16247C10.1667 8.81496 10.3246 8.4248 10.3993 8.01551H6.75195V5.45288H13.12C13.198 5.89975 13.2369 6.35239 13.2363 6.80582C13.2363 8.83037 12.5021 10.5426 11.2278 11.7006L11.2294 11.7018C10.1105 12.7183 8.57619 13.3079 6.75394 13.3079C5.50229 13.3079 4.27528 12.965 3.20991 12.3177C2.14454 11.6703 1.28273 10.7439 0.720703 9.64188V9.64062L0.719028 9.6419C0.246232 8.71485 0 7.6917 0 6.65417C0 5.61664 0.246232 4.59349 0.719028 3.66644H0.720724C1.28275 2.56445 2.14455 1.63806 3.20991 0.990706C4.27528 0.343341 5.50229 0.000492761 6.75394 0.00043655C8.43047 -0.0188585 10.0495 0.602119 11.2716 1.73319L9.3443 3.63229Z" fill="#7F7F7F"/>
<path fill-rule="evenodd" clip-rule="evenodd" d="M19.3381 7.81681V12.5068H17.8281V0.924606H21.8328C22.3108 0.914767 22.786 0.998306 23.2311 1.1704C23.6762 1.3425 24.0823 1.59974 24.4259 1.92729C24.7731 2.23496 25.0493 2.61227 25.2362 3.03388C25.423 3.45549 25.5161 3.91163 25.5092 4.37163C25.5191 4.8341 25.4275 5.29321 25.2405 5.71751C25.0535 6.1418 24.7757 6.52125 24.4259 6.82983C23.7257 7.48782 22.8613 7.8165 21.8328 7.81589L19.3381 7.81681ZM19.3381 2.35055V6.39364H21.8703C22.1479 6.40175 22.4242 6.35268 22.6814 6.24956C22.9387 6.14644 23.1713 5.99155 23.3643 5.7948C23.5563 5.61084 23.709 5.39081 23.8132 5.14771C23.9174 4.90461 23.9711 4.64339 23.9711 4.37949C23.9711 4.11558 23.9174 3.85436 23.8132 3.61126C23.709 3.36817 23.5563 3.14813 23.3643 2.96417C23.1737 2.76327 22.9419 2.60459 22.6843 2.49864C22.4268 2.39269 22.1493 2.3419 21.8703 2.34962L19.3381 2.35055Z" fill="#7F7F7F"/>
<path fill-rule="evenodd" clip-rule="evenodd" d="M28.9873 4.32355C30.1033 4.32355 30.9843 4.61742 31.6302 5.20517C32.2761 5.79292 32.5987 6.59877 32.598 7.62271V12.5068H31.1537V11.407H31.0881C30.4629 12.3127 29.6313 12.7655 28.5934 12.7655C27.7074 12.7655 26.9662 12.5068 26.3697 11.9893C26.0835 11.7517 25.8546 11.4543 25.6998 11.1185C25.5451 10.7828 25.4683 10.4173 25.475 10.0486C25.475 9.22855 25.7895 8.57642 26.4185 8.09217C27.0475 7.60792 27.8872 7.36519 28.9376 7.36395C29.8342 7.36395 30.5726 7.52568 31.1528 7.84912V7.50904C31.1545 7.25769 31.0994 7.00912 30.9916 6.78135C30.8837 6.55357 30.7257 6.35231 30.5291 6.19215C30.1298 5.83717 29.6095 5.64348 29.0717 5.64968C28.2283 5.64968 27.5608 6.00024 27.0694 6.70135L25.7395 5.8761C26.471 4.84106 27.5536 4.32355 28.9873 4.32355ZM27.0337 10.0809C27.0327 10.2703 27.0777 10.4571 27.1648 10.6259C27.2519 10.7947 27.3787 10.9405 27.5346 11.0513C27.8685 11.3101 28.283 11.4472 28.7078 11.4394C29.345 11.4383 29.9558 11.1884 30.4063 10.7444C30.9065 10.2805 31.1566 9.73621 31.1566 9.11149C30.6858 8.74184 30.0293 8.55701 29.1871 8.55701C28.5737 8.55701 28.0623 8.70272 27.6527 8.99413C27.2391 9.28985 27.0337 9.64934 27.0337 10.0809Z" fill="#7F7F7F"/>
<path d="M35.8487 16L40.8906 4.58228H39.2466L36.916 10.275H36.8832L34.487 4.58228H32.8457L36.161 12.0049L34.29 16H35.8487Z" fill="#7F7F7F"/>
</svg>
