<svg width="26" height="26" viewBox="0 0 26 26" fill="none" xmlns="http://www.w3.org/2000/svg">
<circle cx="13" cy="13" r="13" fill="#7F7F7F"/>
<path fill-rule="evenodd" clip-rule="evenodd" d="M12.296 17.9623H13.4317C13.4317 17.9623 13.7747 17.9311 13.9499 17.7743C14.1111 17.6304 14.1059 17.3601 14.1059 17.3601C14.1059 17.3601 14.0837 16.0947 14.791 15.9084C15.4882 15.7249 16.3835 17.1313 17.3325 17.6721C18.05 18.0814 18.5953 17.9917 18.5953 17.9917L21.1327 17.9623C21.1327 17.9623 22.46 17.8944 21.8306 17.0279C21.779 16.957 21.4641 16.3869 19.9441 15.2154C18.3531 13.9892 18.5662 14.1876 20.4827 12.0666C21.6498 10.775 22.1164 9.98638 21.9707 9.64863C21.8317 9.32694 20.9733 9.41197 20.9733 9.41197L18.1163 9.42675C18.1163 9.42675 17.9046 9.40276 17.7475 9.48072C17.594 9.55718 17.4952 9.73537 17.4952 9.73537C17.4952 9.73537 17.043 10.7349 16.44 11.5849C15.1678 13.3786 14.6592 13.4733 14.4513 13.3619C13.9676 13.1024 14.0884 12.3191 14.0884 11.7627C14.0884 10.0245 14.4059 9.29974 13.4701 9.11213C13.1595 9.04981 12.931 9.00868 12.1368 9.00205C11.1174 8.99326 10.2546 9.00462 9.7661 9.20337C9.44109 9.33551 9.19038 9.62999 9.34308 9.64691C9.53189 9.6679 9.95955 9.74265 10.1863 9.99901C10.479 10.3297 10.4687 11.0724 10.4687 11.0724C10.4687 11.0724 10.6369 13.1186 10.0759 13.3728C9.69078 13.5472 9.16252 13.1912 8.02837 11.564C7.44723 10.7304 7.00848 9.80904 7.00848 9.80904C7.00848 9.80904 6.92388 9.63685 6.77298 9.54475C6.58985 9.43317 6.33397 9.39762 6.33397 9.39762L3.61917 9.4124C3.61917 9.4124 3.21163 9.42182 3.06203 9.56896C2.92893 9.69981 3.05145 9.97053 3.05145 9.97053C3.05145 9.97053 5.17686 14.0993 7.58342 16.18C9.79008 18.0876 12.296 17.9623 12.296 17.9623Z" fill="black"/>
</svg>
